<svg width="1000" height="1000" viewBox="0 0 1000 1000" fill="none" xmlns="http://www.w3.org/2000/svg">
<path fill-rule="evenodd" clip-rule="evenodd" d="M238.889 360.446L334.153 416.595C339.539 419.77 342.845 425.556 342.845 431.808V544.192C342.845 550.444 339.539 556.23 334.153 559.405L238.889 615.554C233.356 618.815 226.489 618.815 220.956 615.554L125.692 559.405C120.306 556.23 117 550.444 117 544.192V431.808C117 425.556 120.306 419.77 125.692 416.595L220.956 360.446C226.489 357.185 233.356 357.185 238.889 360.446ZM231.118 373.63C230.38 373.195 229.465 373.195 228.727 373.63L133.463 429.78C132.745 430.203 132.304 430.974 132.304 431.808V544.192C132.304 545.026 132.745 545.797 133.463 546.22L228.727 602.37C229.465 602.805 230.38 602.805 231.118 602.37L326.382 546.22C327.1 545.797 327.541 545.026 327.541 544.192V431.808C327.541 430.974 327.1 430.203 326.382 429.78L231.118 373.63ZM167.734 445.031C164.522 445.031 162.651 441.451 164.627 438.918C181.441 417.366 204.263 404.122 229.399 404.122C254.536 404.122 277.358 417.366 294.172 438.918C296.148 441.451 294.277 445.031 291.064 445.031H167.734ZM306.204 514.437C306.556 509.724 306.737 504.929 306.737 500.067C306.737 496.787 304.041 494.181 300.761 494.181H158.495C155.216 494.181 152.519 496.787 152.519 500.067C152.519 504.929 152.7 509.724 153.053 514.437C153.356 518.496 156.796 521.551 160.866 521.551H298.39C302.46 521.551 305.9 518.496 306.204 514.437ZM161.798 483.586C157.119 483.586 153.423 479.585 154.026 474.945C154.596 470.557 155.317 466.255 156.179 462.054C156.92 458.44 160.15 455.921 163.838 455.921H295.288C298.977 455.921 302.207 458.44 302.948 462.054C303.809 466.255 304.53 470.557 305.101 474.945C305.704 479.585 302.007 483.586 297.329 483.586H161.798ZM224.825 581.121C227.691 583.31 231.667 583.31 234.534 581.121L289.092 539.473C292.133 537.151 290.491 532.293 286.665 532.293L172.694 532.293C168.867 532.293 167.225 537.151 170.267 539.473L224.825 581.121Z" fill="#D5D5D5"/>
<path d="M410.675 478V423.4H425.123V443.728H425.459L439.235 423.4H455.027L438.731 445.576L458.219 478H442.427L430.331 457L425.123 464.392V478H410.675Z" fill="#D5D5D5"/>
<path d="M493.759 478V423.4H508.207V478H493.759Z" fill="#D5D5D5"/>
<path d="M551.495 478V423.4H571.487C575.463 423.4 579.131 423.96 582.491 425.08C585.851 426.2 588.539 428.076 590.555 430.708C592.627 433.34 593.663 436.952 593.663 441.544C593.663 445.968 592.627 449.608 590.555 452.464C588.539 455.264 585.851 457.336 582.491 458.68C579.187 460.024 575.631 460.696 571.823 460.696H565.943V478H551.495ZM565.943 449.272H571.151C574.007 449.272 576.107 448.6 577.451 447.256C578.851 445.856 579.551 443.952 579.551 441.544C579.551 439.08 578.795 437.344 577.283 436.336C575.771 435.328 573.615 434.824 570.815 434.824H565.943V449.272Z" fill="#D5D5D5"/>
<path d="M640.645 479.008C637.229 479.008 633.673 478.364 629.977 477.076C626.281 475.788 622.949 473.828 619.981 471.196L628.213 461.284C630.173 462.852 632.273 464.14 634.513 465.148C636.809 466.1 638.965 466.576 640.981 466.576C643.165 466.576 644.733 466.24 645.685 465.568C646.693 464.896 647.197 463.944 647.197 462.712C647.197 461.424 646.525 460.444 645.181 459.772C643.893 459.1 642.101 458.316 639.805 457.42L633.001 454.564C630.089 453.388 627.513 451.54 625.273 449.02C623.089 446.5 621.997 443.28 621.997 439.36C621.997 436.224 622.865 433.396 624.601 430.876C626.337 428.3 628.717 426.256 631.741 424.744C634.821 423.176 638.349 422.392 642.325 422.392C645.461 422.392 648.625 423.008 651.817 424.24C655.065 425.416 657.949 427.236 660.469 429.7L653.245 438.772C651.397 437.484 649.605 436.504 647.869 435.832C646.189 435.16 644.341 434.824 642.325 434.824C640.589 434.824 639.189 435.132 638.125 435.748C637.117 436.364 636.613 437.288 636.613 438.52C636.613 439.808 637.341 440.816 638.797 441.544C640.253 442.216 642.213 443.028 644.677 443.98L651.313 446.584C654.729 447.928 657.361 449.804 659.209 452.212C661.057 454.62 661.981 457.728 661.981 461.536C661.981 464.616 661.141 467.5 659.461 470.188C657.837 472.82 655.429 474.948 652.237 476.572C649.045 478.196 645.181 479.008 640.645 479.008Z" fill="#848484"/>
<path d="M693.71 478V423.4H728.99V435.496H708.158V444.064H725.966V456.16H708.158V465.904H729.83V478H693.71Z" fill="#848484"/>
<path d="M764.777 478V423.4H779.225V465.904H799.889V478H764.777Z" fill="#848484"/>
<path d="M843.759 478V423.4H858.207V478H843.759Z" fill="#848484"/>
<path d="M430.52 556.96C426.147 556.96 422.173 555.92 418.6 553.84C415.027 551.76 412.173 548.72 410.04 544.72C407.96 540.667 406.92 535.76 406.92 530C406.92 524.293 407.987 519.413 410.12 515.36C412.307 511.253 415.213 508.133 418.84 506C422.467 503.813 426.467 502.72 430.84 502.72C434.147 502.72 437.08 503.387 439.64 504.72C442.2 506.053 444.307 507.6 445.96 509.36L441 515.36C439.667 513.973 438.173 512.88 436.52 512.08C434.92 511.227 433.107 510.8 431.08 510.8C428.253 510.8 425.72 511.573 423.48 513.12C421.293 514.613 419.56 516.773 418.28 519.6C417.053 522.427 416.44 525.813 416.44 529.76C416.44 535.733 417.747 540.427 420.36 543.84C422.973 547.2 426.467 548.88 430.84 548.88C433.187 548.88 435.267 548.4 437.08 547.44C438.893 546.427 440.547 545.12 442.04 543.52L447 549.36C444.867 551.813 442.413 553.707 439.64 555.04C436.92 556.32 433.88 556.96 430.52 556.96Z" fill="#D5D5D5"/>
<path d="M496.055 528.16L494.215 534.56H507.575L505.735 528.16C504.882 525.387 504.055 522.533 503.255 519.6C502.509 516.667 501.762 513.76 501.015 510.88H500.695C500.002 513.813 499.255 516.747 498.455 519.68C497.709 522.56 496.909 525.387 496.055 528.16ZM478.535 556L495.575 503.68H506.455L523.495 556H513.735L509.655 541.84H492.055L487.975 556H478.535Z" fill="#D5D5D5"/>
<path d="M554.359 556V503.68H570.839C574.732 503.68 578.199 504.187 581.239 505.2C584.279 506.213 586.679 507.893 588.439 510.24C590.199 512.587 591.079 515.787 591.079 519.84C591.079 523.68 590.199 526.853 588.439 529.36C586.679 531.867 584.305 533.733 581.319 534.96C578.332 536.187 574.945 536.8 571.159 536.8H563.639V556H554.359ZM563.639 529.36H570.439C578.119 529.36 581.959 526.187 581.959 519.84C581.959 516.533 580.945 514.267 578.919 513.04C576.945 511.76 574.012 511.12 570.119 511.12H563.639V529.36Z" fill="#D5D5D5"/>
<path d="M636.351 556V503.68H645.631V556H636.351Z" fill="#D5D5D5"/>
<path d="M706.364 556V511.52H691.244V503.68H730.764V511.52H715.644V556H706.364Z" fill="#D5D5D5"/>
<path d="M776.055 528.16L774.215 534.56H787.575L785.735 528.16C784.882 525.387 784.055 522.533 783.255 519.6C782.509 516.667 781.762 513.76 781.015 510.88H780.695C780.002 513.813 779.255 516.747 778.455 519.68C777.709 522.56 776.909 525.387 776.055 528.16ZM758.535 556L775.575 503.68H786.455L803.495 556H793.735L789.655 541.84H772.055L767.975 556H758.535Z" fill="#D5D5D5"/>
<path d="M837.562 556V503.68H846.842V548.16H868.602V556H837.562Z" fill="#D5D5D5"/>
</svg>
