<svg width="1000" height="1000" viewBox="0 0 1000 1000" fill="none" xmlns="http://www.w3.org/2000/svg">
<path fill-rule="evenodd" clip-rule="evenodd" d="M512.769 207.387L644.673 285.132C652.131 289.528 656.708 297.539 656.708 306.196V461.804C656.708 470.461 652.131 478.472 644.673 482.868L512.769 560.613C505.108 565.129 495.6 565.129 487.939 560.613L356.035 482.868C348.577 478.472 344 470.461 344 461.804V306.196C344 297.539 348.577 289.528 356.035 285.132L487.939 207.387C495.6 202.871 505.108 202.871 512.769 207.387ZM502.01 225.642C500.988 225.04 499.72 225.04 498.699 225.642L366.795 303.387C365.801 303.973 365.19 305.041 365.19 306.196V461.804C365.19 462.959 365.801 464.027 366.795 464.613L498.699 542.358C499.72 542.96 500.988 542.96 502.01 542.358L633.913 464.613C634.908 464.027 635.518 462.959 635.518 461.804V306.196C635.518 305.041 634.908 303.973 633.913 303.387L502.01 225.642ZM411.338 324.503C408.125 324.503 406.245 320.92 408.175 318.351C431.611 287.148 463.935 267.86 499.629 267.86C535.324 267.86 567.648 287.148 591.084 318.351C593.014 320.92 591.134 324.503 587.921 324.503H411.338ZM605.756 423.344C606.387 415.94 606.713 408.384 606.713 400.707L606.713 400.317C606.707 395.993 603.153 392.557 598.829 392.557H401.066C396.742 392.557 393.188 395.993 393.182 400.317L393.181 400.707C393.181 408.384 393.507 415.94 394.139 423.344C394.485 427.4 397.919 430.455 401.99 430.455H597.905C601.975 430.455 605.41 427.4 605.756 423.344ZM402.685 377.889C398.006 377.889 394.314 373.889 394.857 369.242C395.798 361.182 397.103 353.323 398.744 345.709C399.522 342.103 402.746 339.584 406.435 339.584H593.277C596.966 339.584 600.19 342.103 600.968 345.709C602.609 353.323 603.915 361.182 604.856 369.242C605.398 373.889 601.706 377.889 597.028 377.889H402.685ZM495.163 514.361C498.029 516.55 502.005 516.55 504.872 514.361L585.898 452.507C588.94 450.185 587.298 445.328 583.471 445.328L416.564 445.328C412.737 445.328 411.095 450.185 414.137 452.507L495.163 514.361Z" fill="#D5D5D5"/>
<path d="M271.675 668V613.4H286.123V633.728H286.459L300.235 613.4H316.027L299.731 635.576L319.219 668H303.427L291.331 647L286.123 654.392V668H271.675Z" fill="#D5D5D5"/>
<path d="M354.759 668V613.4H369.207V668H354.759Z" fill="#D5D5D5"/>
<path d="M412.495 668V613.4H432.487C436.463 613.4 440.131 613.96 443.491 615.08C446.851 616.2 449.539 618.076 451.555 620.708C453.627 623.34 454.663 626.952 454.663 631.544C454.663 635.968 453.627 639.608 451.555 642.464C449.539 645.264 446.851 647.336 443.491 648.68C440.187 650.024 436.631 650.696 432.823 650.696H426.943V668H412.495ZM426.943 639.272H432.151C435.007 639.272 437.107 638.6 438.451 637.256C439.851 635.856 440.551 633.952 440.551 631.544C440.551 629.08 439.795 627.344 438.283 626.336C436.771 625.328 434.615 624.824 431.815 624.824H426.943V639.272Z" fill="#D5D5D5"/>
<path d="M501.645 669.008C498.229 669.008 494.673 668.364 490.977 667.076C487.281 665.788 483.949 663.828 480.981 661.196L489.213 651.284C491.173 652.852 493.273 654.14 495.513 655.148C497.809 656.1 499.965 656.576 501.981 656.576C504.165 656.576 505.733 656.24 506.685 655.568C507.693 654.896 508.197 653.944 508.197 652.712C508.197 651.424 507.525 650.444 506.181 649.772C504.893 649.1 503.101 648.316 500.805 647.42L494.001 644.564C491.089 643.388 488.513 641.54 486.273 639.02C484.089 636.5 482.997 633.28 482.997 629.36C482.997 626.224 483.865 623.396 485.601 620.876C487.337 618.3 489.717 616.256 492.741 614.744C495.821 613.176 499.349 612.392 503.325 612.392C506.461 612.392 509.625 613.008 512.817 614.24C516.065 615.416 518.949 617.236 521.469 619.7L514.245 628.772C512.397 627.484 510.605 626.504 508.869 625.832C507.189 625.16 505.341 624.824 503.325 624.824C501.589 624.824 500.189 625.132 499.125 625.748C498.117 626.364 497.613 627.288 497.613 628.52C497.613 629.808 498.341 630.816 499.797 631.544C501.253 632.216 503.213 633.028 505.677 633.98L512.313 636.584C515.729 637.928 518.361 639.804 520.209 642.212C522.057 644.62 522.981 647.728 522.981 651.536C522.981 654.616 522.141 657.5 520.461 660.188C518.837 662.82 516.429 664.948 513.237 666.572C510.045 668.196 506.181 669.008 501.645 669.008Z" fill="#848484"/>
<path d="M554.71 668V613.4H589.99V625.496H569.158V634.064H586.966V646.16H569.158V655.904H590.83V668H554.71Z" fill="#848484"/>
<path d="M625.777 668V613.4H640.225V655.904H660.889V668H625.777Z" fill="#848484"/>
<path d="M704.759 668V613.4H719.207V668H704.759Z" fill="#848484"/>
<path d="M291.52 746.96C287.147 746.96 283.173 745.92 279.6 743.84C276.027 741.76 273.173 738.72 271.04 734.72C268.96 730.667 267.92 725.76 267.92 720C267.92 714.293 268.987 709.413 271.12 705.36C273.307 701.253 276.213 698.133 279.84 696C283.467 693.813 287.467 692.72 291.84 692.72C295.147 692.72 298.08 693.387 300.64 694.72C303.2 696.053 305.307 697.6 306.96 699.36L302 705.36C300.667 703.973 299.173 702.88 297.52 702.08C295.92 701.227 294.107 700.8 292.08 700.8C289.253 700.8 286.72 701.573 284.48 703.12C282.293 704.613 280.56 706.773 279.28 709.6C278.053 712.427 277.44 715.813 277.44 719.76C277.44 725.733 278.747 730.427 281.36 733.84C283.973 737.2 287.467 738.88 291.84 738.88C294.187 738.88 296.267 738.4 298.08 737.44C299.893 736.427 301.547 735.12 303.04 733.52L308 739.36C305.867 741.813 303.413 743.707 300.64 745.04C297.92 746.32 294.88 746.96 291.52 746.96Z" fill="#D5D5D5"/>
<path d="M357.055 718.16L355.215 724.56H368.575L366.735 718.16C365.882 715.387 365.055 712.533 364.255 709.6C363.509 706.667 362.762 703.76 362.015 700.88H361.695C361.002 703.813 360.255 706.747 359.455 709.68C358.709 712.56 357.909 715.387 357.055 718.16ZM339.535 746L356.575 693.68H367.455L384.495 746H374.735L370.655 731.84H353.055L348.975 746H339.535Z" fill="#D5D5D5"/>
<path d="M415.359 746V693.68H431.839C435.732 693.68 439.199 694.187 442.239 695.2C445.279 696.213 447.679 697.893 449.439 700.24C451.199 702.587 452.079 705.787 452.079 709.84C452.079 713.68 451.199 716.853 449.439 719.36C447.679 721.867 445.305 723.733 442.319 724.96C439.332 726.187 435.945 726.8 432.159 726.8H424.639V746H415.359ZM424.639 719.36H431.439C439.119 719.36 442.959 716.187 442.959 709.84C442.959 706.533 441.945 704.267 439.919 703.04C437.945 701.76 435.012 701.12 431.119 701.12H424.639V719.36Z" fill="#D5D5D5"/>
<path d="M497.351 746V693.68H506.631V746H497.351Z" fill="#D5D5D5"/>
<path d="M567.364 746V701.52H552.244V693.68H591.764V701.52H576.644V746H567.364Z" fill="#D5D5D5"/>
<path d="M637.055 718.16L635.215 724.56H648.575L646.735 718.16C645.882 715.387 645.055 712.533 644.255 709.6C643.509 706.667 642.762 703.76 642.015 700.88H641.695C641.002 703.813 640.255 706.747 639.455 709.68C638.709 712.56 637.909 715.387 637.055 718.16ZM619.535 746L636.575 693.68H647.455L664.495 746H654.735L650.655 731.84H633.055L628.975 746H619.535Z" fill="#D5D5D5"/>
<path d="M698.562 746V693.68H707.842V738.16H729.602V746H698.562Z" fill="#D5D5D5"/>
</svg>
